<svg width="356" height="152" viewBox="0 0 356 152" fill="none" xmlns="http://www.w3.org/2000/svg">
<path fill-rule="evenodd" clip-rule="evenodd" d="M152.997 117.189C153.096 121.827 150.757 118.394 150.854 122.938C150.88 124.165 149.468 125.175 147.7 125.193C143.232 125.239 142.27 125.578 141.483 125.856L141.473 125.859C141.371 125.895 141.256 125.938 141.127 125.985C140.579 126.185 139.785 126.476 138.779 126.742C137.501 127.08 135.882 127.387 133.557 127.654C130.836 127.968 128.608 127.744 126.727 127.051C125.057 126.436 123.921 125.526 123.189 124.94C123.153 124.911 123.119 124.884 123.085 124.857C122.235 124.179 121.865 123.93 121.453 123.792C121.195 123.706 120.576 123.55 119.024 123.818C118.169 123.965 116.973 124.534 115.191 125.771C114.443 126.291 113.684 126.86 112.857 127.479C112.755 127.555 112.652 127.633 112.548 127.711C111.62 128.405 110.617 129.149 109.564 129.857C107.493 131.248 104.972 132.676 101.95 133.39C98.8338 134.127 95.4351 134.046 91.8646 132.789C90.2785 132.421 88.7471 131.826 87.2697 131.004C85.4774 130.007 82.6507 129.038 79.1992 128.185C76.3025 127.469 73.1242 126.872 70.0553 126.416C72.1075 127.426 73.6495 128.582 74.6654 129.841C78.7133 134.116 78.0233 139.509 73.2777 142.325C70.8109 143.789 67.477 144.374 63.8641 143.756C60.3533 143.155 56.7798 141.463 53.3195 138.671C51.3963 137.12 49.0776 135.729 46.5462 134.501C47.4058 135.368 47.9716 136.481 47.3463 137.741C46.9177 138.604 46.0532 139.19 45.2496 139.57C44.4464 139.949 43.5295 140.208 42.6368 140.392C40.8511 140.761 38.6493 140.935 36.3071 140.971C31.5876 141.043 25.6638 140.557 19.934 139.502C14.2384 138.454 8.43722 136.788 4.17373 134.366C2.84116 133.609 2.6102 132.256 3.65101 131.304C4.69182 130.352 6.63145 130.142 8.04092 130.828C11.9334 132.725 16.6668 134.021 21.2261 134.76C25.815 135.504 29.9695 135.643 32.6434 135.369C32.9004 135.342 33.1353 135.313 33.3487 135.282C33.1142 135.154 32.8299 135.009 32.486 134.849C30.9758 134.147 28.6698 133.307 25.354 132.356C22.202 131.451 19.8052 130.636 18.1023 129.908C17.2538 129.546 16.4988 129.172 15.8901 128.782C15.4597 128.506 14.9246 128.111 14.5499 127.596C14.0095 127.065 13.557 126.412 13.4578 125.653C13.3317 124.688 13.813 123.826 14.629 123.174C16.0295 122.056 18.2782 121.635 20.0972 121.456C24.0366 121.068 29.6284 121.483 35.3344 122.759C41.1758 123.781 48.1974 126.363 54.0137 131.055C59.7223 135.661 64.6696 136.057 67.0906 135.515C68.344 135.235 69.0938 134.703 69.4247 134.165C69.7311 133.666 69.7938 132.977 69.1783 132.141C67.7462 130.701 65.262 129.264 61.2614 128.285C58.8641 127.698 57.0261 127.167 55.7309 126.682C55.0941 126.443 54.4603 126.169 53.9361 125.848C53.6769 125.69 53.1784 125.363 52.8283 124.872C51.9804 124.059 51.3749 122.875 52.2539 121.589C53.0652 120.403 54.7427 119.846 55.8574 119.571C58.3228 118.964 61.8843 118.812 65.6475 119.036C73.2399 119.487 83.3786 121.577 90.3297 126.451C90.344 126.461 90.3583 126.471 90.3725 126.481C91.8203 127.491 93.0509 128.119 94.0718 128.492C95.0891 128.586 96.2068 128.372 97.6259 127.685C99.2515 126.897 100.911 125.658 102.73 124.143C103.24 123.718 103.772 123.262 104.317 122.796C105.589 121.706 106.929 120.559 108.221 119.602C110.032 118.26 112.334 116.823 115.104 116.345C117.943 115.855 120.341 116.131 122.387 116.91C124.179 117.592 125.563 118.623 126.575 119.376L126.675 119.451C127.828 120.309 128.615 120.875 129.511 121.24C130.249 121.54 131.134 121.728 132.55 121.566C135.49 121.227 136.651 120.31 138.421 118.912C138.516 118.837 138.613 118.76 138.712 118.682C139.688 117.914 140.954 116.956 142.77 116.223C144.643 115.467 146.891 115.03 149.748 115C151.516 114.982 152.971 115.962 152.997 117.189Z" fill="#115793"/>
<path d="M286.247 20.4017C286.964 19.9875 287.782 19.9033 288.523 20.102C302.193 23.7648 310.306 37.8147 306.646 51.4847L306.644 51.489C306.446 52.2306 305.964 52.8964 305.247 53.3107L185.735 122.311C185.419 122.493 185.072 122.616 184.712 122.674L153.297 127.732C146.04 128.9 141.181 120.484 145.821 114.783L151.727 107.528C152.511 108.581 153.242 109.691 153.915 110.856C155.296 113.248 156.353 115.739 157.1 118.276L179.235 114.713C181.786 113.24 182.66 109.978 181.187 107.427C180.146 105.624 178.211 104.659 176.265 104.768C176.917 102.702 176.734 100.38 175.565 98.3563C174.397 96.3325 172.477 95.0123 170.362 94.5446C171.43 92.9139 171.562 90.7553 170.521 88.9521C170.26 88.5 169.942 88.1006 169.583 87.7576L286.247 20.4017Z" fill="#115793"/>
<path d="M153.915 110.857C155.296 113.249 156.353 115.739 157.101 118.277L147.82 119.771C143.284 120.501 140.248 115.241 143.148 111.678L149.082 104.388C150.906 106.304 152.534 108.465 153.915 110.857Z" fill="#3E97E4"/>
<path d="M166.7 85L282.747 18.0002C294.818 21.2346 301.981 33.6421 298.747 45.7131L182.7 112.713L166.7 85Z" fill="#3E97E4"/>
<path fill-rule="evenodd" clip-rule="evenodd" d="M281.247 15.4019C281.936 15.0041 282.755 14.8963 283.523 15.1022C297.194 18.7655 305.308 32.8179 301.644 46.4893C301.439 47.2578 300.936 47.9131 300.247 48.3109L180.735 117.311C180.419 117.493 180.072 117.617 179.712 117.675L148.297 122.732C141.04 123.901 136.181 115.484 140.821 109.784L160.909 85.1061C161.139 84.8231 161.419 84.5844 161.735 84.4019L281.247 15.4019ZM178.589 108.927C179.158 109.912 178.927 111.14 178.097 111.857L159.137 114.91C158.428 113.018 157.554 111.161 156.513 109.356C155.471 107.552 154.299 105.867 153.015 104.307L165.139 89.4132C166.175 89.0536 167.354 89.4671 167.923 90.4521C168.376 91.2373 168.324 92.1809 167.853 92.9012C167.313 93.7258 167.212 94.7631 167.584 95.676C167.956 96.589 168.752 97.261 169.715 97.4739C171.043 97.7675 172.237 98.5916 172.967 99.8564C173.697 101.121 173.814 102.568 173.404 103.865C173.107 104.804 173.291 105.83 173.896 106.609C174.501 107.387 175.449 107.819 176.433 107.763C177.293 107.715 178.136 108.142 178.589 108.927ZM151.317 112.356C150.65 111.201 149.921 110.107 149.136 109.073L145.474 113.571C144.314 114.997 145.529 117.101 147.343 116.808L153.07 115.887C152.567 114.69 151.983 113.511 151.317 112.356ZM280.42 22.8074L171.665 85.5969C172.222 86.1304 172.714 86.7507 173.119 87.4521C173.495 88.1038 173.773 88.785 173.958 89.4786L282.669 26.7141C282.594 25.9918 282.37 25.2731 281.981 24.6004C281.72 24.1473 281.405 23.7508 281.051 23.4116L280.42 22.8074ZM288.144 23.7695C288.484 24.8134 288.664 25.885 288.693 26.9508C290.082 28.0306 291.291 29.3913 292.222 31.0047C293.154 32.618 293.728 34.3449 293.968 36.0882C294.877 36.6463 295.715 37.3377 296.449 38.1536C295.946 32.3823 292.891 27.0907 288.144 23.7695ZM293.42 45.3241L293.212 44.4759C293.095 43.9997 292.91 43.5288 292.648 43.0756C292.26 42.4029 291.749 41.8489 291.161 41.4232L182.45 104.188C182.958 104.694 183.409 105.276 183.785 105.927C184.19 106.629 184.482 107.365 184.665 108.114L293.42 45.3241ZM179.164 99.1569L287.929 36.3609C287.76 35.5544 287.462 34.7598 287.026 34.0047C286.59 33.2495 286.051 32.594 285.437 32.0441L176.671 94.8401C177.233 95.4408 177.735 96.1142 178.163 96.8564C178.592 97.5986 178.924 98.3704 179.164 99.1569Z" fill="#115793"/>
<path d="M311.413 71.9589C319.158 69.8837 325.545 78.2083 321.536 85.1522L317.551 92.0549L324.454 96.0402C331.398 100.049 330.028 110.453 322.283 112.528L286.047 122.237C281.245 123.524 276.31 120.675 275.024 115.873L268.812 92.6911C267.526 87.8899 270.375 82.9549 275.176 81.6684L311.413 71.9589Z" fill="#115793"/>
<path d="M280.27 116.34C277.07 117.197 273.78 115.298 272.922 112.097L266.71 88.9147C265.853 85.7139 267.752 82.4239 270.953 81.5662L307.189 71.8567C312.353 70.4732 316.611 76.023 313.938 80.6523L308.453 90.1531L317.954 95.6383C322.583 98.3111 321.67 105.247 316.507 106.63L280.27 116.34Z" fill="#3E97E4"/>
<path fill-rule="evenodd" clip-rule="evenodd" d="M251.525 74.082C253.136 74.4668 254.131 76.0851 253.746 77.6967C250.157 92.7266 253.169 98.2388 256.102 100.171C257.711 101.232 259.834 101.646 262.253 101.494C264.661 101.343 267.126 100.641 269.142 99.7539C270.659 99.0868 272.429 99.7754 273.096 101.292C273.764 102.809 273.075 104.579 271.558 105.246C269.028 106.359 265.87 107.278 262.629 107.482C259.397 107.685 255.844 107.187 252.8 105.181C246.426 100.981 244.224 91.743 247.91 76.3033C248.295 74.6918 249.913 73.6973 251.525 74.082Z" fill="#115793"/>
<path fill-rule="evenodd" clip-rule="evenodd" d="M303.436 42.8226C304.639 41.6828 306.538 41.7338 307.677 42.9363C314.653 50.2963 319.7 59.2912 321.046 68.2729C322.412 77.384 319.936 86.4521 311.957 93.3198C310.701 94.4006 308.807 94.2589 307.726 93.0032C306.645 91.7474 306.787 89.8532 308.043 88.7723C314.267 83.4151 316.212 76.4987 315.112 69.1623C313.993 61.6965 309.689 53.7808 303.323 47.0637C302.183 45.8611 302.234 43.9623 303.436 42.8226Z" fill="#115793"/>
<path fill-rule="evenodd" clip-rule="evenodd" d="M311.34 79.1523C312.677 76.8377 310.547 74.0628 307.966 74.7545L271.729 84.464C270.129 84.8929 269.179 86.5379 269.608 88.1383L275.82 111.32C276.248 112.921 277.893 113.871 279.494 113.442L315.73 103.732C318.312 103.041 318.768 99.5728 316.454 98.2364L306.953 92.7512C306.264 92.3533 305.761 91.6981 305.555 90.9295C305.349 90.161 305.457 89.3421 305.855 88.6531L311.34 79.1523ZM306.413 68.959C314.158 66.8837 320.545 75.2084 316.536 82.1523L312.551 89.055L319.454 93.0403C326.398 97.0494 325.028 107.453 317.283 109.528L281.047 119.237C276.245 120.524 271.31 117.675 270.024 112.873L263.812 89.6912C262.526 84.89 265.375 79.955 270.176 78.6685L306.413 68.959Z" fill="#115793"/>
<path fill-rule="evenodd" clip-rule="evenodd" d="M306.707 106.53C308.317 106.92 309.306 108.542 308.915 110.152L304.415 128.707C304.089 130.053 302.884 131 301.5 131H297.5C295.843 131 294.5 129.657 294.5 128C294.5 126.343 295.843 125 297.5 125H299.141L303.085 108.738C303.475 107.128 305.097 106.139 306.707 106.53ZM295.405 110.477C296.685 111.529 296.87 113.42 295.817 114.7L283.317 129.905C282.748 130.598 281.897 131 281 131H277.5C275.843 131 274.5 129.657 274.5 128C274.5 126.343 275.843 125 277.5 125H279.583L291.183 110.89C292.235 109.61 294.125 109.425 295.405 110.477Z" fill="#115793"/>
<path fill-rule="evenodd" clip-rule="evenodd" d="M341.072 54.0949C342.124 55.3747 341.94 57.2653 340.66 58.3174C337.893 60.5915 335.374 63.1172 333.092 65.7856C332.015 67.0447 330.121 67.1924 328.862 66.1154C327.603 65.0384 327.455 63.1447 328.532 61.8856C331.015 58.9829 333.782 56.2045 336.849 53.6826C338.129 52.6304 340.02 52.815 341.072 54.0949ZM348.839 66.8518C349.374 68.42 348.536 70.1248 346.968 70.6596C342.905 72.0456 338.067 74.9437 333.349 78.6071C332.04 79.6233 330.156 79.3862 329.14 78.0775C328.124 76.7689 328.361 74.8842 329.669 73.8681C334.651 70 340.088 66.667 345.031 64.9808C346.6 64.446 348.304 65.2836 348.839 66.8518ZM341.55 87.6498C338.187 87.3992 334.436 87.8743 330.808 88.8891C329.212 89.3354 327.557 88.4037 327.111 86.8081C326.664 85.2125 327.596 83.5572 329.192 83.1109C333.337 81.9513 337.797 81.3534 341.996 81.6664C343.649 81.7895 344.888 83.2288 344.765 84.881C344.642 86.5333 343.203 87.7729 341.55 87.6498Z" fill="#115793"/>
</svg>
