<svg width="64" height="64" viewBox="0 0 64 64" fill="none" xmlns="http://www.w3.org/2000/svg">
<g opacity="0.2">
<path d="M14.7978 7.7269L23.4747 16.4038C23.6441 16.5732 23.5563 16.8631 23.3214 16.9101L20.6579 17.4428C20.1735 17.5396 19.7679 17.8687 19.5733 18.3228L17.2514 23.7407C17.1678 23.9358 16.9136 23.9848 16.7635 23.8347L7.72676 14.798C7.6096 14.6808 7.6096 14.4909 7.72676 14.3737L14.3736 7.7269C14.4907 7.60974 14.6807 7.60974 14.7978 7.7269Z" stroke="currentColor" stroke-width="2"/>
</g>
<g opacity="0.2">
<path d="M46.7978 7.72687L55.4747 16.4037C55.6441 16.5732 55.5563 16.863 55.3214 16.91L52.6579 17.4427C52.1735 17.5396 51.7679 17.8687 51.5733 18.3227L49.2514 23.7407C49.1678 23.9358 48.9136 23.9847 48.7635 23.8347L39.7268 14.7979C39.6096 14.6808 39.6096 14.4908 39.7268 14.3737L46.3736 7.72687C46.4907 7.60971 46.6807 7.60971 46.7978 7.72687Z" stroke="currentColor" stroke-width="2"/>
</g>
<g opacity="0.2">
<path d="M14.7978 39.7269L23.4747 48.4037C23.6441 48.5732 23.5563 48.863 23.3214 48.91L20.6579 49.4427C20.1735 49.5396 19.7679 49.8687 19.5733 50.3227L17.2514 55.7407C17.1678 55.9358 16.9136 55.9847 16.7635 55.8347L7.72676 46.7979C7.6096 46.6808 7.6096 46.4908 7.72676 46.3737L14.3736 39.7269C14.4907 39.6097 14.6807 39.6097 14.7978 39.7269Z" stroke="currentColor" stroke-width="2"/>
</g>
<g opacity="0.2">
<path d="M46.7978 39.7269L55.4747 48.4038C55.6441 48.5732 55.5563 48.8631 55.3214 48.9101L52.6579 49.4428C52.1735 49.5396 51.7679 49.8687 51.5733 50.3228L49.2514 55.7407C49.1678 55.9358 48.9136 55.9848 48.7635 55.8347L39.7268 46.798C39.6096 46.6808 39.6096 46.4909 39.7268 46.3737L46.3736 39.7269C46.4907 39.6097 46.6807 39.6097 46.7978 39.7269Z" stroke="currentColor" stroke-width="2"/>
</g>
</svg>
