<svg width="48" height="48" viewBox="0 0 48 48" fill="none" xmlns="http://www.w3.org/2000/svg">
<g clip-path="url(#clip0_2968_3969)">
<path opacity="0.2" fill-rule="evenodd" clip-rule="evenodd" d="M50 0C50 1.10457 49.1046 2 48 2C46.8954 2 46 1.10457 46 0C46 -1.10457 46.8954 -2 48 -2C49.1046 -2 50 -1.10457 50 0ZM26 24C26 25.1046 25.1046 26 24 26C22.8954 26 22 25.1046 22 24C22 22.8954 22.8954 22 24 22C25.1046 22 26 22.8954 26 24ZM48 50C49.1046 50 50 49.1046 50 48C50 46.8954 49.1046 46 48 46C46.8954 46 46 46.8954 46 48C46 49.1046 46.8954 50 48 50ZM2 48C2 49.1046 1.10457 50 0 50C-1.10457 50 -2 49.1046 -2 48C-2 46.8954 -1.10457 46 0 46C1.10457 46 2 46.8954 2 48ZM0 2C1.10457 2 2 1.10457 2 0C2 -1.10457 1.10457 -2 0 -2C-1.10457 -2 -2 -1.10457 -2 0C-2 1.10457 -1.10457 2 0 2Z" fill="currentColor"/>
</g>
<defs>
<clipPath id="clip0_2968_3969">
<rect width="48" height="48" fill="white"/>
</clipPath>
</defs>
</svg>
